<?xml version="1.0" encoding="UTF-8" standalone="no"?>
<!-- Uploaded to: SVG Repo, www.svgrepo.com, Generator: SVG Repo Mixer Tools -->

<svg
   fill="#000000"
   version="1.1"
   id="Capa_1"
   width="128"
   height="128"
   viewBox="0 0 93.259839 93.25984"
   xml:space="preserve"
   sodipodi:docname="icon.svg"
   inkscape:version="1.3.2 (091e20ef0f, 2023-11-25, custom)"
   xmlns:inkscape="http://www.inkscape.org/namespaces/inkscape"
   xmlns:sodipodi="http://sodipodi.sourceforge.net/DTD/sodipodi-0.dtd"
   xmlns="http://www.w3.org/2000/svg"
   xmlns:svg="http://www.w3.org/2000/svg"><defs
   id="defs2">
	

		
	
	
	
	
	
	
	
	

	
	

	
	
</defs><sodipodi:namedview
   id="namedview2"
   pagecolor="#ffffff"
   bordercolor="#000000"
   borderopacity="0.25"
   inkscape:showpageshadow="2"
   inkscape:pageopacity="0.0"
   inkscape:pagecheckerboard="0"
   inkscape:deskcolor="#d1d1d1"
   inkscape:zoom="4.38"
   inkscape:cx="30.365297"
   inkscape:cy="81.278539"
   inkscape:window-width="1920"
   inkscape:window-height="1131"
   inkscape:window-x="0"
   inkscape:window-y="32"
   inkscape:window-maximized="1"
   inkscape:current-layer="g2" />

<g
   id="g2"
   transform="matrix(0.12730653,0.10925,-0.10925914,0.12729588,38.509386,-4.5721115)"><ellipse
     style="fill:#464655;stroke-width:0.81032"
     cx="-194.47827"
     cy="51.860138"
     rx="38.895306"
     ry="25.930204"
     id="ellipse1"
     transform="rotate(-90)" /><ellipse
     style="fill:#ff695f;stroke-width:0.81032"
     cx="-194.47827"
     cy="233.37076"
     rx="123.16766"
     ry="155.58041"
     id="ellipse2"
     transform="rotate(-90)" /><circle
     style="fill:#f0ebe1;stroke-width:0.810319"
     cx="-220.40764"
     cy="123.16817"
     r="12.965102"
     id="circle2"
     transform="rotate(-90)" /><circle
     style="fill:#f0ebe1;stroke-width:0.810319"
     cx="-168.54803"
     cy="123.16817"
     r="12.965102"
     id="circle3"
     transform="rotate(-90)" /><circle
     style="fill:#464655;stroke-width:0.810319"
     cx="-241.96629"
     cy="239.85327"
     r="19.447653"
     id="circle4"
     transform="rotate(-90)" /><path
     style="fill:#464655;stroke-width:0.810319"
     d="m 311.16296,274.37824 c 0,7.47843 4.26957,13.89454 10.4596,17.14878 10.37613,-5.66899 19.83175,-12.30956 28.17317,-19.7572 -1.28598,-9.49451 -9.33731,-16.83924 -19.18511,-16.83924 -10.74078,0 -19.44766,8.70688 -19.44766,19.44766 z"
     id="path4" /><path
     style="fill:#464655;stroke-width:0.810319"
     d="m 213.92551,300.30844 c 0,-7.16079 -5.80513,-12.9651 -12.96511,-12.9651 -7.16078,0 -12.9651,5.80431 -12.9651,12.9651 0,3.18699 1.19441,6.06686 3.1019,8.3236 5.31002,1.18549 10.73025,2.15626 16.25419,2.89203 3.90898,-2.23324 6.57412,-6.3918 6.57412,-11.21563 z"
     id="path5" /><circle
     style="fill:#464655;stroke-width:0.810319"
     cx="-190.1067"
     cy="136.13327"
     r="19.447653"
     id="circle5"
     transform="rotate(-90)" /><circle
     style="fill:#464655;stroke-width:0.810319"
     cx="-138.24628"
     cy="239.85327"
     r="19.447653"
     id="circle6"
     transform="rotate(-90)" /><path
     style="fill:#464655;stroke-width:0.810319"
     d="m 311.16296,105.83272 c 0,-7.478436 4.26957,-13.895352 10.4596,-17.149593 10.37613,5.668991 19.83175,12.309553 28.17317,19.757193 -1.28598,9.49451 -9.33731,16.84005 -19.18511,16.84005 -10.74078,0 -19.44766,-8.70769 -19.44766,-19.44765 z"
     id="path6" /><path
     style="fill:#464655;stroke-width:0.810319"
     d="m 213.92551,79.902512 c 0,7.159978 -5.80513,12.965102 -12.96511,12.965102 -7.16078,0 -12.9651,-5.805124 -12.9651,-12.965102 0,-3.186984 1.19441,-6.066858 3.1019,-8.324406 5.31002,-1.184686 10.73025,-2.155448 16.25419,-2.892028 3.90898,2.232428 6.57412,6.391795 6.57412,11.216434 z"
     id="path7" /><path
     style="fill:#6b676e;stroke-width:0.81032"
     d="m 97.240407,116.68682 c -35.65403,17.28654 -45.37786,21.60878 -45.37786,77.78981 0,56.18103 9.72383,60.50408 45.37786,77.7898 6.012563,2.91553 10.803983,-5.94207 16.725793,-14.23406 10.81127,-42.71434 11.57378,-85.10861 0,-127.11148 -5.92181,-8.292 -10.71323,-17.14959 -16.725793,-14.23407 z"
     id="path8" /><path
     style="fill:#f0ebe1;stroke-width:0.810319"
     d="m 71.273727,258.12232 c 7.555413,-2.66838 13.001566,-9.79919 13.001566,-18.26783 0,-10.74078 -8.706876,-19.44765 -19.447653,-19.44765 -4.274432,0 -8.193135,1.42049 -11.402808,3.75826 2.3637,17.54907 7.715046,26.59547 17.848895,33.95722 z"
     id="path9" /><path
     style="fill:#f0ebe1;stroke-width:0.810319"
     d="m 53.424832,164.78898 c 3.209673,2.33777 7.128376,3.75826 11.402808,3.75826 10.740777,0 19.447653,-8.70688 19.447653,-19.44766 0,-8.46864 -5.446153,-15.59945 -13.001566,-18.26783 -10.133849,7.36094 -15.485195,16.40734 -17.848895,33.95723 z"
     id="path10" /><path
     d="m 194.47786,6.48426 c 0,16.93081 7.54974,29.14637 13.85727,36.39628 -8.59748,3.07112 -20.87139,7.2945 -28.39439,9.17525 -15.60917,3.90249 -19.23048,17.43725 -17.94613,25.90265 -17.17228,6.74671 -32.88841,15.99407 -46.48961,27.52167 -2.76563,2.34425 -4.95106,5.23709 -6.47121,8.46136 -4.01676,-3.75665 -8.81789,-5.90075 -14.621403,-3.08732 l -0.73738,0.35816 c -2.17571,1.05503 -4.25743,2.06469 -6.26053,3.04923 -3.79391,-8.8268 -11.32421,-23.50411 -29.06938,-23.50411 h -42.38373 c 3.45114,-11.3234 6.61544,-31.54086 -3.5492,-54.48665 -1.45047,-3.27369 -5.2800402,-4.75091 -8.5529202,-3.30124 -3.27369001,1.45047 -4.75252001,5.27922 -3.30123001,8.55291 12.63773021,28.52566 0.72118001,51.69429 0.21959,52.64318 -1.08259,2.00878 -1.02668,4.43812 0.14261,6.39828 1.17010001,1.95854 3.28423001,3.15781 5.56528001,3.15781 H 58.345907 c 9.41752,0 13.7584,7.68587 17.52557,16.52808 -8.76278,4.93646 -15.35392,9.99123 -20.24095,17.38701 -2.26484,3.42765 -4.09535,7.23615 -5.55149,11.71235 -6.77265,1.59956 -12.64017,4.87325 -17.39188,9.65252 -7.19239,-7.32772 -16.8749,-13.87185 -24.3395502,-16.11076 -3.42927,-1.02911 -7.04248,0.91728 -8.07239001,4.34654 -1.02506,3.42928 0.91808001,7.0433 4.34654001,8.07159 5.8934502,1.76812 14.7599602,8.15991 20.4435402,14.50795 -0.0137,0.0276 -0.0283,0.0527 -0.0421,0.081 -5.03127,10.2635 -5.57418,20.60884 -5.57418,24.58022 0,3.97137 0.54291,14.31671 5.57418,24.58021 0.0137,0.0275 0.0283,0.0527 0.0421,0.081 -5.68439,6.34803 -14.55009,12.73983 -20.4435402,14.50794 -3.42926,1.02911 -5.37565001,4.63989 -4.34654001,8.07159 1.02991001,3.42927 4.64231001,5.37484 8.07239001,4.34655 7.4646502,-2.23891 17.1471602,-8.78305 24.3395502,-16.11076 4.75171,4.77926 10.61842,8.05295 17.39188,9.65252 1.45614,4.4762 3.28665,8.2847 5.55149,11.71235 4.88622,7.39578 11.47735,12.45055 20.24095,17.38701 -3.76636,8.84301 -8.10805,16.52807 -17.52557,16.52807 H 6.4854968 c -2.28105,0 -4.39518,1.19928 -5.56528001,3.15782 -1.1709,1.95935 -1.22357,4.3895 -0.14261,6.39827 0.12641,0.23581 12.52834021,23.87281 -0.21959,52.64319 -1.44885,3.27368 0.0283,7.10244 3.30123001,8.55291 3.27288,1.45047 7.1024502,-0.0276 8.5529202,-3.30124 10.16626,-22.94742 7.00197,-43.16245 3.54839,-54.48665 h 42.38535 c 17.74517,0 25.27547,-14.67731 29.06938,-23.50411 2.00311,0.98454 4.08481,1.99419 6.26052,3.04922 l 0.73739,0.35736 c 5.803503,2.81423 10.603833,0.67013 14.621403,-3.08732 1.51934,3.22426 3.70559,6.1171 6.4712,8.46135 13.60121,11.5276 29.31815,20.77577 46.48962,27.52248 -1.28111,8.46783 2.33777,22.00016 17.94613,25.90266 7.52301,1.88075 19.7969,6.10413 28.39439,9.17524 -6.30672,7.24992 -13.85727,19.46548 -13.85727,36.39628 0,3.57999 2.90257,6.48256 6.48255,6.48256 3.58,0 6.48256,-2.90257 6.48256,-6.48256 0,-21.51883 16.00622,-33.10476 16.66258,-33.5707 1.75758,-1.22034 2.78507,-3.21697 2.78507,-5.32298 0,-0.2666 -0.017,-0.53482 -0.0502,-0.80384 -0.2982,-2.39206 -1.89939,-4.4211 -4.15694,-5.26708 -1.07205,-0.40273 -26.42693,-9.89156 -39.59866,-13.18469 -6.47769,-1.61983 -8.03431,-5.93072 -8.31145,-8.85679 18.39343,5.6852 38.16278,8.6615 58.59741,8.6615 18.57251,0 36.67503,-2.48687 53.70955,-7.25235 1.99338,4.81167 5.05396,11.40199 11.78609,14.12062 4.42191,1.78594 9.43698,1.47153 14.90582,-0.93511 10.19867,-4.48755 38.55983,-17.11556 51.62623,-22.93689 4.75008,14.04688 17.60904,42.93313 43.00039,42.93313 3.58,0 6.48253,-2.90257 6.48253,-6.48256 0,-3.57998 -2.90253,-6.48255 -6.48253,-6.48255 -22.26191,0 -32.4938,-39.99896 -32.58942,-40.39682 -0.44648,-1.8767 -1.70491,-3.45682 -3.43494,-4.3109 -1.72922,-0.85408 -3.74853,-0.89459 -5.51017,-0.10859 -0.44892,0.20015 -44.97756,20.04892 -58.3146,25.91724 -1.4764,0.64907 -3.51192,1.31191 -4.8295,0.77953 -1.67817,-0.67742 -3.12378,-3.49247 -4.23067,-6.04335 17.6066,-6.28727 33.82595,-15.12299 47.91658,-26.27784 30.9712,-24.51863 48.02761,-57.25389 48.02761,-92.17458 0,-34.92069 -17.05641,-67.65758 -48.02761,-92.17459 -14.09063,-11.15485 -30.30916,-19.99056 -47.91658,-26.27783 1.10608,-2.55089 2.55169,-5.36593 4.23067,-6.04336 1.31758,-0.53157 3.3531,0.13047 4.8295,0.77953 13.33704,5.86833 57.86568,25.7179 58.3146,25.91724 1.7592,0.78439 3.7769,0.74306 5.50531,-0.10939 1.72841,-0.85165 2.98845,-2.43096 3.43818,-4.30361 0.0972,-0.40435 10.32913,-40.40331 32.59104,-40.40331 3.58,0 6.48253,-2.90256 6.48253,-6.48255 0,-3.57999 -2.90253,-6.48255 -6.48253,-6.48255 -25.39135,0 -38.25031,28.88624 -43.0012,42.93312 -13.0664,-5.82132 -41.42756,-18.44934 -51.62623,-22.93688 -5.46803,-2.40665 -10.48391,-2.72105 -14.90582,-0.93511 -6.73213,2.71862 -9.7927,9.30975 -11.78609,14.12062 -17.03452,-4.76549 -35.13704,-7.25236 -53.70955,-7.25236 -20.43544,0 -40.20398,2.97711 -58.59903,8.66312 0.27713,-2.92606 1.83375,-7.23776 8.31145,-8.85678 13.17173,-3.29314 38.5266,-12.78198 39.59866,-13.1847 2.25755,-0.84597 3.85874,-2.87501 4.15693,-5.26708 0.0332,-0.26902 0.0503,-0.53724 0.0503,-0.80383 0,-2.10602 -1.02748,-4.10265 -2.78506,-5.32298 C 223.9371,39.9374 207.44143,28.23072 207.44143,6.48257 207.44143,2.9026 204.53887,0 200.95889,0 c -3.58,0 -6.48094,2.90338 -6.48094,6.48419 z m 0.49997,75.28511 c 3.53218,-0.74306 7.10488,-1.38078 10.70593,-1.91884 1.1069,1.18712 1.75921,2.76158 1.75921,4.42273 0,3.57431 -2.90824,6.48255 -6.48256,6.48255 -3.57431,0 -6.48255,-2.90824 -6.48255,-6.48255 0,-0.87839 0.16774,-1.71707 0.49997,-2.50389 z M 66.447477,144.78382 c 1.99014,-3.01195 4.51266,-5.56851 7.63077,-7.963 1.99419,5.47856 2.29806,12.66933 -0.61179,17.91939 -2.43987,4.40165 -6.84881,6.83099 -13.11096,7.25154 1.30056,-7.50922 3.28179,-12.95538 6.09198,-17.20793 z m -34.03259,49.69362 c 0,-2.51199 0.46351,-22.3251 14.46825,-30.13576 -1.04531,8.09104 -1.50314,17.89913 -1.50314,30.13576 0,12.23662 0.45783,22.04472 1.50314,30.13576 -14.00474,-7.81067 -14.46825,-27.62377 -14.46825,-30.13576 z m 34.03259,49.692 c -2.81019,-4.25337 -4.79142,-9.69872 -6.09198,-17.20794 6.26215,0.42055 10.67109,2.84989 13.11096,7.25154 2.90824,5.25006 2.60437,12.44083 0.61179,17.9194 -3.11892,-2.3953 -5.64063,-4.95105 -7.63077,-7.963 z m 32.88274,21.90615 c -4.18044,-2.0266 -7.94761,-3.85306 -11.34203,-5.58958 -0.16288,-0.11344 -0.32089,-0.23013 -0.49673,-0.3306 -0.34844,-0.19934 -0.70903,-0.35735 -1.07448,-0.4862 -0.39058,-0.20339 -0.79006,-0.40921 -1.1693,-0.61098 2.04444,-4.50537 3.38309,-10.00338 3.38309,-15.69101 0,-5.19982 -1.11581,-10.55359 -3.8239,-15.43982 -4.92836,-8.89244 -14.12304,-13.84024 -25.91562,-13.99015 -0.37113,-5.61228 -0.54534,-12.04053 -0.54534,-19.46225 0,-7.42171 0.17421,-13.84997 0.54534,-19.46223 11.79339,-0.14991 20.98726,-5.09772 25.91562,-13.99016 2.70809,-4.88622 3.8239,-10.23919 3.8239,-15.43982 0,-5.68762 -1.33784,-11.18645 -3.38309,-15.69101 0.38005,-0.20177 0.77872,-0.40759 1.1693,-0.61098 0.36545,-0.12884 0.72604,-0.28685 1.07448,-0.48619 0.17584,-0.10048 0.33466,-0.21717 0.49673,-0.33061 3.39442,-1.73652 7.1624,-3.56297 11.34203,-5.58958 l 0.23661,-0.11426 c 1.671693,1.14741 4.624493,5.43562 6.630843,8.34953 0.60531,0.8792 1.23087,1.77298 1.85725,2.66351 5.6463,18.51255 8.63314,39.47307 8.63314,60.701 0,21.22792 -2.98764,42.18925 -8.63395,60.70099 -0.62557,0.89054 -1.25113,1.78432 -1.85644,2.66351 -2.00635,2.91472 -4.95834,7.20212 -6.630843,8.34953 z m 95.647613,41.10829 c -0.33223,-0.78681 -0.49997,-1.6255 -0.49997,-2.50388 0,-3.57432 2.90824,-6.48256 6.48255,-6.48256 3.57432,0 6.48256,2.90824 6.48256,6.48256 0,1.66115 -0.65231,3.2356 -1.75921,4.42272 -3.60105,-0.53887 -7.17375,-1.17659 -10.70593,-1.91884 z m 147.61742,-33.36974 c -6.31401,5.31975 -13.24953,10.18004 -20.71986,14.50714 -2.68621,-2.45445 -4.22986,-5.93235 -4.22986,-9.5723 0,-7.14863 5.81646,-12.9651 12.9651,-12.9651 5.26545,7.1e-4 9.99609,3.204 11.98462,8.03026 z m 0,-158.67503 c -1.98853,4.82707 -6.71917,8.03026 -11.98462,8.03026 -7.14864,0 -12.9651,-5.81646 -12.9651,-12.9651 0,-3.63914 1.54284,-7.11703 4.22986,-9.57229 7.47033,4.3271 14.40585,9.18739 20.71986,14.50713 z M 310.03906,94.43628 c -3.44061,4.49322 -5.35864,10.03013 -5.35864,15.76799 0,14.29808 11.63213,25.9302 25.93021,25.9302 8.91594,0 17.07504,-4.58802 21.78218,-11.85577 17.31085,17.93236 28.1683,39.88146 29.84404,63.71618 H 149.10081 c -3.57998,0 -6.48254,2.90257 -6.48254,6.48256 0,3.57998 2.90256,6.48255 6.48254,6.48255 h 233.13604 c -1.67574,23.83472 -12.53319,45.78301 -29.84404,63.71618 -4.70714,-7.26775 -12.86624,-11.85578 -21.78218,-11.85578 -14.29808,0 -25.93021,11.63214 -25.93021,25.93021 0,5.73787 1.91803,11.27478 5.35864,15.768 -22.41666,10.56169 -48.64993,16.64476 -76.66589,16.64476 -4.66257,0 -9.30408,-0.18313 -13.91479,-0.52509 0.61583,-1.90263 0.94969,-3.90736 0.94969,-5.95746 0,-10.72376 -8.72471,-19.44766 -19.44766,-19.44766 -10.43367,0 -18.97118,8.25958 -19.42577,18.58386 -21.75868,-6.34642 -41.60502,-16.63504 -57.64852,-30.23219 -2.76237,-2.34101 -4.34655,-5.84078 -4.34655,-9.60066 0,-1.35971 0.20663,-2.71376 0.61504,-4.02404 6.21352,-19.96788 9.49774,-42.61143 9.49774,-65.48187 0,-22.86964 -3.28422,-45.51237 -9.49694,-65.48106 -0.004,-0.01 -0.006,-0.0194 -0.008,-0.0292 -0.40273,-1.30138 -0.60774,-2.6457 -0.60774,-3.9965 0,-3.75988 1.58417,-7.25965 4.34735,-9.60066 16.0427,-13.59715 35.88984,-23.88658 57.64772,-30.23219 0.45459,10.32427 8.9921,18.58386 19.42577,18.58386 10.72295,0 19.44766,-8.72389 19.44766,-19.44766 0,-2.0493 -0.33386,-4.05483 -0.9497,-5.95746 4.60991,-0.34277 9.25222,-0.52508 13.91479,-0.52508 28.01678,0 54.25005,6.08225 76.6659,16.64394 z"
     id="path11"
     style="stroke-width:0.81032;fill:#1a1a1a" /><path
     d="m 212.46834,239.05114 c 0,14.29806 11.63213,25.9302 25.9302,25.9302 14.29808,0 25.9302,-11.63214 25.9302,-25.9302 0,-14.29809 -11.63212,-25.93021 -25.9302,-25.93021 -14.29807,0 -25.9302,11.63213 -25.9302,25.93021 z m 38.89531,0 c 0,7.14863 -5.81647,12.9651 -12.96511,12.9651 -7.14863,0 -12.9651,-5.81647 -12.9651,-12.9651 0,-7.14864 5.81647,-12.96511 12.9651,-12.96511 7.14864,0 12.96511,5.81565 12.96511,12.96511 z"
     id="path12"
     style="stroke-width:0.81032" /><path
     d="m 213.92552,139.70266 c 0,14.29809 11.63213,25.93021 25.9302,25.93021 14.29808,0 25.9302,-11.63212 25.9302,-25.93021 0,-14.29808 -11.63212,-25.9302 -25.9302,-25.9302 -14.29807,0 -25.9302,11.63213 -25.9302,25.9302 z m 38.89531,0 c 0,7.14864 -5.81647,12.96511 -12.96511,12.96511 -7.14863,0 -12.9651,-5.81647 -12.9651,-12.96511 0,-7.14863 5.81647,-12.9651 12.9651,-12.9651 7.14864,0 12.96511,5.81566 12.96511,12.9651 z"
     id="path13"
     style="stroke-width:0.81032" /><path
     style="fill:#000000;stroke-width:0.908345;stroke:#000000"
     d="m 144.51195,213.88334 c -5.95477,-11.99531 -6.32951,-24.66809 -1.07776,-36.4427 2.17744,-4.88171 4.51752,-7.99161 10.44032,-13.87473 6.62967,-6.58483 8.51484,-7.89409 14.33029,-9.94923 6.37815,-2.25408 21.09081,-3.17255 26.44849,-1.65114 2.50113,0.71022 2.5058,0.70562 1.88485,-1.83407 -1.42763,-5.83801 -0.82837,-17.36471 1.24581,-23.96391 9.05848,-28.81991 43.35775,-39.72684 68.02562,-21.63169 9.89049,7.25521 14.50359,15.68143 18.47632,33.74872 3.70462,16.84819 6.18622,22.73712 12.14262,28.81498 9.72371,9.92196 3.5133,9.47595 152.11126,10.92334 89.8003,0.87461 135.7766,1.86493 136.8401,2.94734 2.0731,2.11005 1.8492,19.54656 -0.2769,21.63632 -0.8922,0.87626 -5.5307,1.5326 -10.321,1.46029 l -8.7005,-0.13131 0.4068,5.91738 c 0.5464,7.95112 -0.3368,10.22537 -6.0612,15.60032 -4.3973,4.12919 -4.8759,5.04881 -4.9147,9.44119 -0.039,4.41217 0.3314,5.14826 3.9677,7.88631 2.6782,2.01652 4.5031,4.29559 5.4922,6.85896 1.6869,4.37334 1.4934,30.80697 -0.2488,33.93938 -1.6036,2.88384 -8.2914,4.20409 -15.3797,3.03627 -5.6524,-0.93129 -6.119,-1.23057 -10.0516,-6.45142 -9.4309,-12.5201 -14.2766,-15.41887 -22.7117,-13.58659 -3.5373,0.76835 -4.8419,1.73062 -8.4655,6.24458 -8.8105,10.97533 -11.2081,12.85393 -17.1341,13.42541 -8.4906,0.81879 -12.4668,-0.12454 -14.4487,-3.42816 -1.0334,-1.72259 -1.5954,-8.65855 -1.4327,-17.6852 0.2771,-15.41234 1.6645,-19.67361 7.5224,-23.11102 3.0716,-1.80254 5.194,-7.61705 4.1187,-11.28471 -0.4226,-1.44193 -2.1512,-3.63701 -3.8415,-4.87791 -4.522,-3.32043 -7.1615,-8.88719 -7.447,-15.70666 -0.1394,-3.31782 -0.5487,-6.05012 -0.9109,-6.07174 -0.362,-0.022 -36.7683,-0.43167 -80.90295,-0.9116 -88.94056,-0.96643 -88.34486,-1.01868 -97.92811,8.59008 -5.85779,5.87365 -7.438,9.51184 -12.36867,28.48153 -5.84655,22.49257 -12.56493,31.78961 -27.84328,38.53002 -7.76767,3.42686 -21.63438,4.13322 -30.15662,1.53618 -16.04977,-4.89098 -27.886,-19.43076 -30.2609,-37.17295 l -0.62271,-4.65236 -10.79975,-0.2854 c -13.92258,-0.36808 -19.84972,-2.67455 -28.94648,-11.26465 -5.29135,-4.9967 -7.78567,-8.18816 -10.19909,-13.04974 z m 29.52246,3.24525 c 9.25239,3.8959 19.39851,1.92803 26.61492,-5.16203 6.9196,-6.79837 9.0741,-15.93762 6.04916,-25.65936 -2.13712,-6.8682 -9.98944,-13.7536 -17.50988,-15.35352 -13.77709,-2.93116 -26.25333,5.39701 -29.08847,19.41712 -2.2783,11.26614 3.5015,22.36486 13.93427,26.75779 z m 52.69754,42.85877 c 6.04903,3.34843 17.47356,3.24676 23.74997,-0.21132 7.86013,-4.33056 11.98487,-11.56232 12.06963,-21.16157 0.10348,-11.67921 -5.61834,-19.69855 -16.70797,-23.41795 -15.66894,-5.25525 -33.2949,8.8537 -31.63912,25.32589 0.88646,8.81813 5.08842,15.34715 12.52749,19.46495 z m 1.23722,-99.33608 c 8.56064,4.73863 21.62228,3.24329 28.18523,-3.22669 14.66084,-14.45247 6.86567,-38.79226 -13.58432,-42.41758 -16.25952,-2.8824 -31.58261,14.55753 -26.72703,30.41947 2.50772,8.19211 4.94146,11.24779 12.12612,15.2248 z"
     id="path2" /></g></svg>
